# xmcd CD database file
#
# Track frame offsets:
#	150
#	11780
#	26525
#	40487
#	53625
#	70662
#	87280
#	104150
#	125400
#	139865
#	155060
#	170452
#	184162
#	198112
#
# Disc length: 2880 seconds
#
# Revision: 1
# Processed by: cddbd v1.4PL0 Copyright (c) Steve Scherf et al.
# Submitted via: CDex 1.50Beta7
#
DISCID=c20b3e0e
DTITLE=Yuhki Kuramoto - ÌôªÎãÌ-ú­ª«ªéªÎñüªêªâªÎ
DYEAR=1994
DGENRE=New Age
TTITLE0=Prologue~Seagull's Lullaby
TTITLE1=Meditation 1
TTITLE2=Dozing
TTITLE3=Little Starlight
TTITLE4=Towing
TTITLE5=Ripples In Silence
TTITLE6=Swan Song
TTITLE7=Sentosa Island
TTITLE8=Ondine
TTITLE9=Whale Song
TTITLE10=Sonnet Of The Sea
TTITLE11=Lonely Sailing
TTITLE12=Peacefully
TTITLE13=Seagull's Lullaby
EXTD=YEAR: 1994
EXTT0=
EXTT1=
EXTT2=
EXTT3=
EXTT4=
EXTT5=
EXTT6=
EXTT7=
EXTT8=
EXTT9=
EXTT10=
EXTT11=
EXTT12=
EXTT13=
PLAYORDER=
